<?xml version="1.0" standalone="no"?>
<!DOCTYPE svg PUBLIC "-//W3C//DTD SVG 20010904//EN"
 "http://www.w3.org/TR/2001/REC-SVG-20010904/DTD/svg10.dtd">
<svg version="1.0" xmlns="http://www.w3.org/2000/svg"
 width="384.000000pt" height="384.000000pt" viewBox="0 0 384.000000 384.000000"
 preserveAspectRatio="xMidYMid meet">
<metadata>
Created by potrace 1.14, written by Peter Selinger 2001-2017
</metadata>
<g transform="translate(0.000000,384.000000) scale(0.100000,-0.100000)"
fill="#000000" stroke="none">
<path d="M1198 3029 c-2 -6 -28 -14 -58 -17 -30 -3 -60 -11 -68 -18 -7 -8 -24
-14 -37 -14 -12 0 -25 -7 -29 -15 -3 -8 -17 -15 -31 -15 -14 0 -25 -5 -25 -11
0 -6 -13 -24 -30 -41 -16 -16 -30 -36 -30 -43 0 -7 -5 -15 -12 -17 -8 -3 -12
-33 -12 -95 0 -85 1 -91 27 -115 15 -14 27 -30 27 -37 0 -6 7 -11 15 -11 8 0
15 -7 15 -15 0 -8 7 -15 15 -15 8 0 15 -7 15 -15 0 -9 9 -15 25 -15 14 0 25
-4 25 -10 0 -5 18 -13 40 -16 22 -4 40 -10 40 -14 0 -4 19 -10 41 -13 23 -3
45 -10 48 -15 3 -6 41 -13 84 -17 42 -4 77 -11 77 -15 0 -4 19 -10 42 -13 24
-3 44 -11 46 -16 2 -6 15 -11 28 -11 15 0 24 -6 24 -15 0 -8 7 -15 15 -15 10
0 15 -10 15 -30 0 -20 5 -30 15 -30 8 0 15 6 15 14 0 8 11 17 25 20 14 4 25
11 25 16 0 6 7 10 15 10 8 0 15 7 15 15 0 8 7 15 15 15 8 0 15 7 15 15 0 8 7
15 15 15 8 0 15 4 15 10 0 5 11 12 25 16 14 3 25 12 25 20 0 8 5 14 11 14 6 0
17 6 25 14 16 17 19 36 4 36 -5 0 -10 6 -10 14 0 8 -11 17 -25 20 -14 4 -25
11 -25 16 0 6 -7 10 -15 10 -8 0 -15 7 -15 15 0 11 -11 15 -39 15 -25 0 -41 5
-45 15 -3 9 -19 15 -41 15 -20 0 -43 7 -51 15 -10 10 -35 15 -70 15 -30 0 -54
4 -54 9 0 5 -27 12 -60 16 -33 4 -60 10 -60 15 0 4 -18 10 -40 14 -39 6 -40 7
-40 46 0 29 4 40 15 40 8 0 15 7 15 15 0 12 17 15 95 15 78 0 95 -3 95 -15 0
-8 7 -15 15 -15 8 0 15 -7 15 -15 0 -8 4 -15 9 -15 5 0 12 -11 15 -24 3 -14
16 -28 27 -31 12 -4 87 -4 165 0 l144 7 0 54 c0 41 -4 54 -15 54 -10 0 -15 10
-15 30 0 17 -5 30 -11 30 -6 0 -24 14 -41 30 -16 17 -36 30 -44 30 -8 0 -14 4
-14 9 0 5 -13 12 -30 16 -16 4 -30 11 -30 16 0 5 -23 9 -50 9 -36 0 -52 4 -56
15 -5 12 -32 15 -154 15 -101 0 -150 -4 -152 -11z"/>
<path d="M1970 2803 c0 -82 3 -165 6 -185 6 -36 8 -38 45 -38 28 0 39 4 39 15
0 11 12 15 51 15 31 0 56 6 65 15 9 9 34 15 60 15 24 0 44 4 44 9 0 5 25 13
55 16 30 4 55 11 55 16 0 5 11 9 25 9 18 0 25 5 25 20 0 11 -4 20 -9 20 -5 0
-11 23 -13 52 -3 29 -11 54 -17 56 -6 2 -11 24 -11 48 0 32 -4 44 -15 44 -8 0
-15 5 -15 10 0 6 -72 10 -195 10 l-195 0 0 -147z"/>
<path d="M2660 2935 c0 -8 -4 -15 -9 -15 -5 0 -11 -23 -13 -52 -3 -29 -11 -54
-17 -56 -6 -2 -11 -24 -11 -49 0 -41 1 -44 23 -37 12 4 24 10 27 14 3 4 30 10
60 12 30 3 56 11 58 17 2 6 27 11 58 11 41 0 54 4 54 15 0 12 13 15 55 15 30
0 55 4 55 10 0 5 11 12 25 16 23 6 25 11 25 60 l0 54 -195 0 c-167 0 -195 -2
-195 -15z"/>
<path d="M2638 2663 c-16 -2 -28 -9 -28 -14 0 -5 -11 -9 -24 -9 -24 0 -36 -21
-36 -67 0 -13 -4 -23 -10 -23 -5 0 -10 -11 -10 -24 0 -31 -10 -56 -21 -56 -5
0 -9 25 -9 55 0 42 -3 55 -15 55 -8 0 -15 7 -15 15 0 11 -11 15 -40 15 -29 0
-40 -4 -40 -15 0 -11 -12 -15 -45 -15 -25 0 -45 -4 -45 -10 0 -5 -11 -12 -25
-16 -19 -5 -25 -13 -25 -34 0 -16 5 -30 11 -32 6 -2 13 -26 16 -53 3 -28 10
-53 15 -56 5 -3 12 -25 15 -48 3 -22 10 -41 14 -41 5 0 9 -13 9 -29 0 -16 7
-36 15 -45 8 -8 15 -32 15 -53 0 -22 7 -48 15 -59 8 -10 15 -29 15 -42 0 -44
20 -52 133 -52 112 0 117 2 117 55 0 13 5 25 11 27 5 2 13 22 16 46 3 23 10
42 14 42 5 0 9 13 9 29 0 16 7 36 15 45 8 8 15 32 15 54 0 26 5 42 15 46 10 3
15 19 15 45 0 22 5 41 11 43 6 2 14 27 17 56 5 52 15 66 26 36 3 -9 6 -130 6
-270 l0 -254 120 0 120 0 0 330 0 330 -192 -1 c-106 -1 -205 -4 -220 -6z"/>
<path d="M2170 2511 c0 -5 -13 -12 -30 -16 -16 -4 -30 -11 -30 -16 0 -5 -11
-9 -25 -9 -14 0 -28 -7 -31 -15 -4 -8 -17 -15 -30 -15 -15 0 -24 -6 -24 -15 0
-8 -7 -15 -15 -15 -13 0 -15 -29 -15 -200 l0 -200 125 0 125 0 0 255 0 255
-25 0 c-14 0 -25 -4 -25 -9z"/>
<path d="M920 2370 c0 -5 -15 -10 -32 -10 -56 0 -78 -10 -78 -35 0 -13 7 -25
15 -29 9 -3 15 -18 15 -36 0 -16 4 -30 10 -30 5 0 12 -11 16 -25 3 -14 10 -25
15 -25 5 0 9 -7 9 -15 0 -8 7 -15 15 -15 8 0 15 -7 15 -15 0 -8 7 -15 15 -15
8 0 15 -7 15 -15 0 -9 9 -15 24 -15 13 0 26 -7 30 -15 3 -10 19 -15 46 -15 22
0 40 -4 40 -10 0 -6 33 -10 80 -10 47 0 80 4 80 10 0 6 6 10 13 10 7 0 20 8
29 18 26 27 46 42 58 42 5 0 10 7 10 15 0 8 6 15 14 15 8 0 16 7 20 15 3 8 15
15 26 15 11 0 20 4 20 9 0 4 -34 11 -77 14 -42 3 -79 10 -82 15 -3 5 -16 12
-28 16 -13 4 -23 12 -23 17 0 5 -7 9 -15 9 -8 0 -15 6 -15 14 0 8 -7 16 -15
20 -10 3 -15 19 -15 46 l0 40 -125 0 c-77 0 -125 -4 -125 -10z"/>
<path d="M1810 2311 c0 -5 -12 -12 -27 -16 -15 -3 -37 -17 -50 -31 -12 -13
-31 -24 -43 -24 -11 0 -20 -6 -20 -14 0 -8 -11 -17 -25 -20 -14 -4 -25 -11
-25 -16 0 -6 -7 -10 -15 -10 -8 0 -15 -7 -15 -15 0 -8 -6 -15 -14 -15 -8 0
-16 -7 -20 -15 -3 -8 -12 -15 -20 -15 -13 0 -116 -94 -116 -105 0 -3 32 -5 70
-5 39 0 70 4 70 9 0 5 23 11 52 13 29 3 54 11 56 17 2 6 13 11 24 11 21 0 88
60 88 80 0 5 7 10 15 10 8 0 15 7 15 15 0 8 4 15 10 15 5 0 13 18 16 40 4 22
10 40 15 40 5 0 9 14 9 30 0 25 -4 30 -25 30 -14 0 -25 -4 -25 -9z"/>
<path d="M2597 1794 c-4 -4 -7 -68 -7 -141 0 -103 -3 -138 -14 -149 -18 -18
-112 -19 -119 -1 -10 22 -27 -15 -27 -58 0 -43 17 -80 27 -57 7 19 113 16 113
-3 0 -8 5 -15 10 -15 6 0 10 -53 10 -140 l0 -140 60 0 60 0 -2 353 -3 352 -50
3 c-28 2 -54 0 -58 -4z"/>
<path d="M3507 1794 c-4 -4 -7 -42 -7 -85 0 -90 1 -89 -106 -89 l-74 0 0 -40
c0 -22 5 -40 10 -40 6 0 10 -7 10 -15 0 -12 16 -15 80 -15 l79 0 3 -97 3 -98
55 0 55 0 0 240 0 240 -50 3 c-28 2 -54 0 -58 -4z"/>
<path d="M3180 1780 c0 -5 -20 -10 -45 -10 l-45 0 0 -45 c0 -25 -4 -45 -9 -45
-5 0 -12 -25 -16 -55 -3 -30 -11 -55 -16 -55 -5 0 -9 -7 -9 -15 0 -8 -7 -15
-15 -15 -8 0 -15 -5 -15 -11 0 -14 -85 -99 -99 -99 -6 0 -11 -7 -11 -15 0 -10
-10 -15 -30 -15 -25 0 -30 -4 -30 -23 0 -22 31 -57 50 -57 6 0 10 -7 10 -15 0
-8 7 -15 15 -15 8 0 15 4 15 9 0 5 11 12 25 15 14 4 25 11 25 16 0 6 7 10 15
10 8 0 15 7 15 15 0 9 9 15 25 15 16 0 25 6 25 15 0 8 7 15 15 15 8 0 15 7 15
15 0 8 7 15 15 15 9 0 15 9 15 25 0 20 5 25 25 25 18 0 26 -7 31 -25 3 -14 12
-25 20 -25 8 0 14 -7 14 -15 0 -9 9 -15 25 -15 16 0 25 -6 25 -15 0 -8 7 -15
15 -15 8 0 15 -4 15 -10 0 -5 11 -12 25 -16 14 -3 25 -10 25 -15 0 -5 7 -9 15
-9 8 0 15 5 15 10 0 6 7 10 15 10 8 0 15 7 15 15 0 8 7 15 15 15 10 0 15 10
15 30 0 27 -3 30 -30 30 -20 0 -30 5 -30 15 0 8 -7 15 -15 15 -8 0 -15 5 -15
10 0 6 -7 10 -15 10 -20 0 -95 80 -95 102 0 10 -7 18 -16 18 -14 0 -16 8 -10
53 4 28 11 54 17 55 16 6 10 41 -11 62 -22 22 -30 25 -30 10z"/>
<path d="M280 1725 c0 -9 -10 -15 -26 -15 -26 0 -84 -48 -84 -70 0 -6 -7 -18
-15 -26 -21 -22 -21 -152 0 -160 8 -4 15 -17 15 -30 0 -15 6 -24 15 -24 8 0
15 -7 15 -15 0 -8 7 -15 15 -15 8 0 15 -4 15 -10 0 -5 11 -12 25 -16 14 -3 25
-10 25 -14 0 -5 14 -11 30 -15 17 -4 30 -11 30 -16 0 -5 11 -9 25 -9 16 0 25
-6 25 -15 0 -10 10 -15 30 -15 17 0 30 -5 30 -11 0 -7 11 -22 25 -35 20 -19
25 -33 25 -74 0 -27 -4 -50 -10 -50 -5 0 -10 -7 -10 -15 0 -8 -6 -15 -14 -15
-8 0 -16 -6 -18 -12 -3 -9 -29 -13 -83 -13 -54 0 -80 4 -83 13 -2 6 -17 12
-33 12 -19 0 -29 5 -29 15 0 8 -5 15 -11 15 -14 0 -39 25 -39 39 0 6 -7 11
-15 11 -12 0 -15 -16 -15 -80 0 -64 3 -80 15 -80 8 0 15 -7 15 -15 0 -10 10
-15 30 -15 20 0 30 -5 30 -15 0 -13 22 -15 135 -15 113 0 135 2 135 15 0 9 9
15 25 15 14 0 25 5 25 10 0 6 8 14 18 17 25 10 38 25 46 56 3 15 11 27 16 27
6 0 10 37 10 89 0 66 -4 92 -15 101 -8 7 -15 17 -15 22 0 13 -51 63 -72 71
-10 3 -18 11 -18 17 0 5 -11 10 -25 10 -16 0 -25 6 -25 15 0 10 -10 15 -34 15
-21 0 -36 6 -40 15 -3 8 -14 15 -25 15 -11 0 -36 16 -56 35 -29 30 -35 43 -35
78 0 66 25 82 128 82 50 0 86 -4 90 -11 4 -6 17 -14 30 -18 12 -4 22 -12 22
-17 0 -5 6 -9 14 -9 8 0 16 -7 20 -15 13 -35 26 -11 26 50 0 70 -20 105 -60
105 -11 0 -20 7 -20 15 0 13 -21 15 -125 15 -104 0 -125 -2 -125 -15z"/>
<path d="M640 1686 c0 -65 1 -66 148 -66 l102 0 0 -350 0 -350 65 0 65 0 0
338 c0 185 4 342 8 349 5 8 47 13 127 15 l120 3 1 25 c1 48 4 60 14 60 6 0 10
-7 10 -15 0 -8 7 -15 15 -15 9 0 15 -9 15 -24 0 -13 7 -26 15 -30 8 -3 15 -12
15 -21 0 -8 5 -15 10 -15 6 0 10 -6 10 -14 0 -8 6 -21 14 -28 7 -8 17 -24 20
-36 4 -12 12 -22 17 -22 5 0 9 -9 9 -20 0 -11 4 -20 10 -20 5 0 12 -11 16 -25
3 -14 10 -25 15 -25 5 0 9 -7 9 -15 0 -8 7 -15 15 -15 11 0 15 -11 15 -40 0
-29 -4 -40 -15 -40 -8 0 -15 -7 -15 -15 0 -8 -4 -15 -9 -15 -5 0 -12 -11 -15
-25 -4 -14 -11 -25 -16 -25 -6 0 -10 -9 -10 -20 0 -11 -7 -20 -15 -20 -8 0
-15 -9 -15 -20 0 -12 -11 -31 -24 -43 -13 -12 -26 -32 -30 -44 -4 -13 -12 -23
-17 -23 -5 0 -9 -9 -9 -19 0 -11 -7 -26 -15 -35 -8 -8 -15 -22 -15 -30 0 -9
-4 -16 -10 -16 -5 0 -10 -4 -10 -10 0 -6 27 -10 60 -10 47 0 64 4 80 20 11 11
20 25 20 30 0 6 4 10 10 10 5 0 12 11 16 25 3 14 10 25 14 25 5 0 11 13 15 30
4 17 11 30 16 30 5 0 9 7 9 15 0 8 7 15 15 15 9 0 15 9 15 25 0 14 5 25 10 25
6 0 10 6 10 14 0 8 5 18 11 21 13 9 49 -28 49 -50 0 -8 7 -15 15 -15 9 0 15
-9 15 -25 0 -16 6 -25 15 -25 9 0 15 -9 15 -25 0 -14 5 -25 10 -25 6 0 10 -7
10 -15 0 -9 7 -18 15 -21 8 -4 15 -17 15 -30 0 -15 6 -24 15 -24 8 0 15 -7 15
-15 0 -12 14 -15 70 -15 56 0 70 3 70 15 0 8 -7 15 -15 15 -9 0 -15 9 -15 24
0 13 -7 26 -15 30 -8 3 -15 12 -15 21 0 8 -4 15 -10 15 -5 0 -12 11 -16 25 -3
14 -10 25 -14 25 -4 0 -11 11 -14 25 -4 14 -11 25 -16 25 -6 0 -10 9 -10 20 0
11 -7 20 -15 20 -9 0 -15 9 -15 25 0 14 -4 25 -10 25 -5 0 -10 7 -10 15 0 8
-7 15 -15 15 -9 0 -15 9 -15 25 0 14 -7 28 -15 31 -8 4 -15 17 -15 30 0 15 6
24 15 24 8 0 15 7 15 15 0 8 4 15 9 15 5 0 12 11 15 25 4 14 11 25 16 25 6 0
10 7 10 15 0 9 7 18 15 21 8 4 15 17 15 30 0 15 6 24 15 24 8 0 15 7 15 15 0
8 4 15 9 15 5 0 12 14 16 30 4 17 11 30 16 30 5 0 9 7 9 15 0 8 7 15 15 15 9
0 15 9 15 25 0 14 5 25 10 25 6 0 10 7 10 15 0 12 -14 15 -64 15 -66 0 -96
-14 -96 -46 0 -8 -4 -14 -9 -14 -5 0 -12 -11 -15 -25 -4 -14 -11 -25 -16 -25
-6 0 -10 -9 -10 -19 0 -11 -7 -26 -15 -35 -8 -8 -15 -19 -15 -25 0 -6 -4 -11
-10 -11 -5 0 -13 -12 -16 -27 -7 -27 -26 -53 -38 -53 -14 0 -46 42 -46 60 0
11 -7 20 -15 20 -10 0 -15 10 -15 30 0 20 -5 30 -15 30 -8 0 -15 7 -15 15 0 8
-4 15 -10 15 -5 0 -10 11 -10 25 0 14 -6 25 -13 25 -7 0 -18 14 -24 30 l-11
30 -391 0 -391 0 0 -54z"/>
<path d="M2003 1733 c-18 -7 -16 -71 1 -89 11 -11 46 -14 150 -14 l136 0 0
-45 c0 -25 -4 -45 -9 -45 -5 0 -12 -11 -15 -25 -4 -14 -11 -25 -16 -25 -6 0
-10 -9 -10 -20 0 -11 -5 -20 -11 -20 -14 0 -39 -25 -39 -39 0 -6 -7 -11 -15
-11 -8 0 -15 -7 -15 -15 0 -8 -6 -15 -14 -15 -8 0 -16 -7 -20 -15 -3 -8 -17
-15 -31 -15 -16 0 -25 -6 -25 -15 0 -9 -9 -15 -25 -15 -14 0 -25 -4 -25 -10 0
-5 -13 -10 -30 -10 -27 0 -30 -3 -30 -29 0 -16 7 -36 15 -45 8 -8 15 -19 15
-24 0 -5 11 -13 24 -16 27 -7 56 1 56 15 0 5 11 9 25 9 14 0 28 6 31 14 3 8
16 17 30 20 13 4 24 11 24 16 0 6 7 10 15 10 8 0 15 7 15 15 0 8 5 15 11 15
14 0 99 85 99 99 0 6 7 11 15 11 8 0 15 7 15 15 0 8 4 15 10 15 5 0 13 18 16
40 4 22 10 40 14 40 5 0 11 14 15 30 4 17 11 30 16 30 5 0 9 24 9 54 0 30 4
56 9 58 5 2 13 15 16 31 l7 27 -223 -1 c-123 0 -230 -3 -236 -6z"/>
<path d="M3040 1270 c0 -5 -7 -10 -15 -10 -11 0 -15 -12 -15 -45 0 -32 4 -45
14 -45 8 0 17 -6 20 -12 5 -10 7 -10 12 0 9 19 410 17 430 -2 33 -33 17 -36
-215 -36 -126 0 -236 -3 -245 -6 -14 -5 -16 -27 -16 -140 l0 -134 315 0 315 0
0 55 0 55 -245 0 -245 0 0 25 0 25 233 2 232 3 3 128 3 127 -71 0 c-40 0 -70
4 -70 10 0 6 -20 10 -45 10 -25 0 -45 -4 -45 -10 0 -5 -11 -10 -25 -10 -14 0
-25 5 -25 10 0 6 -57 10 -150 10 -93 0 -150 -4 -150 -10z"/>
<path d="M2118 1143 c-16 -4 -18 -20 -18 -154 l0 -149 314 0 314 0 5 23 c2 12
4 36 3 52 l-1 30 -247 3 -248 2 0 100 0 100 -52 -1 c-29 -1 -61 -3 -70 -6z"/>
</g>
</svg>
